<svg xmlns="http://www.w3.org/2000/svg" width="36" height="35.12" viewBox="0 0 36 35.12">
  <path id="github" d="M18,0a17.609,17.609,0,0,1,9.035,2.414,17.917,17.917,0,0,1,6.551,6.551A17.609,17.609,0,0,1,36,18a17.494,17.494,0,0,1-3.434,10.582,17.635,17.635,0,0,1-8.871,6.5,1.051,1.051,0,0,1-.938-.164.916.916,0,0,1-.305-.7q0-.07.012-1.793t.012-3.152a4.174,4.174,0,0,0-1.219-3.328,16.092,16.092,0,0,0,2.4-.422,9.568,9.568,0,0,0,2.2-.914,6.541,6.541,0,0,0,1.9-1.559A7.271,7.271,0,0,0,29,20.59a11.821,11.821,0,0,0,.482-3.527,6.942,6.942,0,0,0-1.852-4.828,6.24,6.24,0,0,0-.188-4.781,3.068,3.068,0,0,0-1.9.258A12.661,12.661,0,0,0,23.39,8.743l-.891.563a16.93,16.93,0,0,0-9,0q-.375-.258-1-.633a14.1,14.1,0,0,0-1.956-.9,3.224,3.224,0,0,0-1.992-.317,6.24,6.24,0,0,0-.188,4.781,6.942,6.942,0,0,0-1.852,4.828A11.715,11.715,0,0,0,7,20.578a7.508,7.508,0,0,0,1.232,2.461,6.352,6.352,0,0,0,1.887,1.57,9.52,9.52,0,0,0,2.2.914,16.155,16.155,0,0,0,2.4.422,3.958,3.958,0,0,0-1.148,2.414,4.683,4.683,0,0,1-1.055.352,6.552,6.552,0,0,1-1.336.117,2.772,2.772,0,0,1-1.535-.5,4.12,4.12,0,0,1-1.3-1.465A3.778,3.778,0,0,0,7.207,25.64a3.432,3.432,0,0,0-1.16-.563l-.469-.07a1.529,1.529,0,0,0-.68.1q-.188.1-.117.27a1.291,1.291,0,0,0,.211.328,1.725,1.725,0,0,0,.3.281l.164.117A2.823,2.823,0,0,1,6.481,27a5.876,5.876,0,0,1,.738,1.195l.234.539a2.97,2.97,0,0,0,1.031,1.441,3.654,3.654,0,0,0,1.57.7,9.912,9.912,0,0,0,1.629.164,6.983,6.983,0,0,0,1.3-.082l.539-.094q0,.891.012,2.074t.012,1.277a.916.916,0,0,1-.305.7,1.051,1.051,0,0,1-.938.164,17.629,17.629,0,0,1-8.871-6.5A17.493,17.493,0,0,1,0,18,17.609,17.609,0,0,1,2.414,8.965,17.917,17.917,0,0,1,8.965,2.414,17.609,17.609,0,0,1,18,0ZM6.82,25.852q.07-.164-.164-.281-.234-.07-.3.047-.07.164.164.281Q6.726,26.04,6.82,25.852Zm.727.8q.164-.117-.047-.375-.234-.211-.375-.07-.164.117.047.375Q7.406,26.813,7.547,26.649Zm.7,1.055q.211-.164,0-.445-.188-.3-.4-.141-.211.117,0,.422T8.25,27.7Zm.984.984q.188-.188-.094-.445-.281-.281-.469-.07-.211.188.094.445Q9.046,28.9,9.234,28.688Zm1.336.586q.07-.258-.305-.375-.352-.094-.445.164t.305.352q.352.141.445-.141Zm1.477.117q0-.3-.4-.258-.375,0-.375.258,0,.3.4.258Q12.047,29.649,12.047,29.391Zm1.359-.234q-.047-.258-.422-.211-.375.07-.328.352t.422.188q.375-.094.328-.328Z"/>
</svg>
