<svg xmlns="http://www.w3.org/2000/svg" width="35.984" height="35.984" viewBox="0 0 35.984 35.984">
  <path id="linkedin-rect" d="M7.058.009A7.073,7.073,0,0,0,.007,7.061V28.943a7.072,7.072,0,0,0,7.052,7.05H28.941a7.071,7.071,0,0,0,7.05-7.05V7.061A7.072,7.072,0,0,0,28.941.009ZM8.832,5.947A2.833,2.833,0,1,1,8.8,11.6H8.761a2.832,2.832,0,1,1,.071-5.649Zm16.023,7.5c3.576,0,6.256,2.337,6.256,7.36v9.376H25.677V21.435c0-2.2-.786-3.7-2.753-3.7a2.976,2.976,0,0,0-2.789,1.987,3.711,3.711,0,0,0-.179,1.326v9.132H14.521s.071-14.818,0-16.352h5.435v2.316a5.4,5.4,0,0,1,4.9-2.7Zm-18.776.385h5.434V30.182H6.079V13.831Z" transform="translate(-0.007 -0.009)"/>
</svg>
